PathFileType	4	(X/Y/Z)	33_2_83_p0_0-360_filt_butterworth.trc
DataRate	CameraRate	NumFrames	NumMarkers	Units	OrigDataRate	OrigDataStartFrame	OrigNumFrames
59.0	59.0	5	27	m	59.0	0	360
Frame#	Time	RHip			RKnee			RAnkle			RBigToe			RSmallToe			RHeel			LHip			LKnee			LAnkle			LBigToe			LSmallToe			LHeel			Neck			Head			Nose			RShoulder			RElbow			RWrist			RThumb			RIndex			RPinky			LShoulder			LElbow			LWrist			LThumb			LIndex			LPinky			
		X1	Y1	Z1	X2	Y2	Z2	X3	Y3	Z3	X4	Y4	Z4	X5	Y5	Z5	X6	Y6	Z6	X7	Y7	Z7	X8	Y8	Z8	X9	Y9	Z9	X10	Y10	Z10	X11	Y11	Z11	X12	Y12	Z12	X13	Y13	Z13	X14	Y14	Z14	X15	Y15	Z15	X16	Y16	Z16	X17	Y17	Z17	X18	Y18	Z18	X19	Y19	Z19	X20	Y20	Z20	X21	Y21	Z21	X22	Y22	Z22	X23	Y23	Z23	X24	Y24	Z24	X25	Y25	Z25	X26	Y26	Z26	X27	Y27	Z27	
0	0.0	0.2983414104561174	0.5408781081472159	0.7097524815670846	0.2873467022980335	0.09257124861523675	0.7291988968037992	0.25383800893329206	-0.30693757205388156	0.6699330028011783	0.25938055965142365	-0.3448134984688571	0.5540799239391923	0.3249346391891187	-0.3330542171285514	0.5489681158587831	0.22225996073282298	-0.3971776657046046	0.7421601355537087	0.09307094823842497	0.5261094988126942	0.7138456353007654	0.0846632415613773	0.10435015432085598	0.7173036820371838	0.09308580305336442	-0.3356738317129963	0.724010801806418	0.10235779671411775	-0.3296976365873968	0.5443485581344034	0.04151254833076576	-0.34191320829918	0.5836091198296635	0.09910237977733521	-0.3824331758922402	0.7443381554793561	0.23007102526952425	1.1673927567088649	0.6912135747353283	0.24159820965293433	1.418517749598314	0.6776478242485273	0.246455883840408	1.2765410069307443	0.5618722616589051	0.3893862715730495	1.0534540907199108	0.7258520904983614	0.43127239275361234	0.7905625663993594	0.6678771563028882	0.2819983932497456	0.6302079442236784	0.5579585595437503	0.18987739525595398	0.5755156996201272	0.5355408895728642	0.16929749453176898	0.5405339472586895	0.5717865984084731	0.16943703731921694	0.5220952816042619	0.5696006158611377	0.05929738629009497	1.079189711116874	0.6977460263694888	0.013818461787612257	0.8191946057422487	0.6285666126228586	0.13257555031715768	0.652817872347459	0.535486376547952	0.24255599608093215	0.6090128680466754	0.5060822186745699	0.23513808866008956	0.5654748000337173	0.5326008678978673	0.18550728821171394	0.5138067982663352	0.5426327375182954	
1	0.0169491525423728	0.29837136943156384	0.5418000732470827	0.7104296489249199	0.28780304561050535	0.09243330596461508	0.7278645473390081	0.25364447451480154	-0.3104868756213687	0.6754938199667658	0.2579771351175608	-0.34441121870251296	0.5489743741172302	0.32485137788844737	-0.3330732071648088	0.5484336691892374	0.2229710390762662	-0.39866797974868495	0.7441775106883805	0.09153938407348848	0.526772937741407	0.7169758930072774	0.0835757416039269	0.10280941447810804	0.7161498916362988	0.09193797805901739	-0.33657190481779575	0.7234319821639276	0.10000503756795409	-0.3260673503605546	0.5416849173170805	0.041478097605491954	-0.34177919691038094	0.5833306102886866	0.09879663711891212	-0.3834353992432738	0.7444061735965953	0.2300914371280925	1.167427697391115	0.6911853953099767	0.2416142460965913	1.417113567941705	0.6773116048406624	0.24646397031248904	1.2762228038770342	0.5618974648039308	0.38951210431544225	1.0549819494161057	0.7262522950620467	0.4313325203803567	0.7904306525271828	0.6678740482210936	0.281686249777937	0.6297956345063725	0.5581979920995039	0.18725572501700222	0.5806901532771036	0.5349750229639596	0.16582638638787917	0.541839073730248	0.5767643963150785	0.16916856129140714	0.5229109478794984	0.5702981312599791	0.059291868386758886	1.0791750021191666	0.6978002828353604	0.012018803605834003	0.8181042977208546	0.6321248173968443	0.13117620540395425	0.6516383593854145	0.5346428296730341	0.2414022820965663	0.6099312129760346	0.5106587373811016	0.2341020396411548	0.5652087643296979	0.5353991344116317	0.18560234642604653	0.5148355381978531	0.5434002769795141	
2	0.0338983050847457	0.2984792759175255	0.542308348590193	0.7109792230464665	0.2882248708300097	0.09227793140927903	0.7265126623717422	0.2536062037631336	-0.3133204723927041	0.6799416379643483	0.2573920221512892	-0.3436248466473906	0.5454846602732802	0.32479641804651743	-0.33309331450507174	0.5480884563383467	0.2235472073747666	-0.40006576662318316	0.7459393374509282	0.0903764319853537	0.5271721787880469	0.719443362598702	0.0827403388473812	0.10141737375206428	0.715278468635764	0.09096667122717954	-0.3373782813318971	0.7229526885714957	0.09839488228000025	-0.3237150914431279	0.5398880993354005	0.041455818441024146	-0.34169107080869937	0.583108123752525	0.09853224033987792	-0.38432612149188694	0.7444825238542692	0.23010553015308083	1.167437861217036	0.691195398962299	0.2416202573780835	1.4162146734018655	0.6770831602130452	0.24648322780997356	1.2757147668701647	0.5619488316296121	0.38959478943128056	1.0559956321157233	0.7265219526336922	0.43137684035417606	0.7904124304501587	0.6678822775472542	0.2815551256346891	0.6300921314361883	0.5583971722336629	0.18557634980198778	0.5844221964131604	0.534416052404443	0.16476890711676584	0.543245829039709	0.5775818179619434	0.16919346086619452	0.5239791070771024	0.5703998371948451	0.059289927652053494	1.0791861820760411	0.697834895472619	0.010494634004072443	0.8172980356434458	0.6351785870587	0.13000030439581098	0.6507758347924456	0.5340236231437562	0.24093931810119973	0.6116068736192246	0.51137631014494	0.23378291973102835	0.5662460498472643	0.5350018003276117	0.18561915602927104	0.5153114761715771	0.5438612436725976	
3	0.0508474576271186	0.29865524495164436	0.5424519217021699	0.7114160630153512	0.2886123178257774	0.09211184429712965	0.7251498641189177	0.2537046188748427	-0.31550102400238184	0.6833735956182111	0.25741165137808963	-0.3425493075494983	0.543326338366702	0.3247637872760113	-0.3331122694282437	0.5478955702044338	0.22399952006427692	-0.4013725402801434	0.7474624066654484	0.08954607367153562	0.527340992236802	0.7213076460916528	0.08213579019537122	0.10017121755014141	0.7146645530344328	0.09015956656451445	-0.3380952385316691	0.7225648234544968	0.09740057370090215	-0.3224025712111971	0.5388062580791068	0.04144384229438183	-0.34163923284169706	0.5829339529145046	0.0983068430760891	-0.385110097758965	0.7445656830635597	0.23011442332789991	1.1674294000014473	0.6912323738968383	0.241619665016246	1.4157268774157734	0.6769423891632954	0.24650996254917068	1.275088629790458	0.5620173608733086	0.38964278778966976	1.0565845996582466	0.7266855945331848	0.4314071675114495	0.7904731538721663	0.66789462384108	0.28156185064065176	0.6308644228489754	0.5585530104452969	0.18465381373457793	0.5869419294801467	0.5338936143181969	0.16552883148420705	0.5446638740062285	0.5752749229046086	0.1694149720476141	0.525175701966311	0.570101503494052	0.059291369734484595	1.0792147564493164	0.6978539489460398	0.009239714821407157	0.8167345212369014	0.6377267120825489	0.12903940618542145	0.6501834589801794	0.5335981633229416	0.24100508641309604	0.6137771977425772	0.5091983138145845	0.2340392176635162	0.5682307991527985	0.5321467575426558	0.185574035954698	0.5153392804308412	0.5440737844288536	
4	0.0677966101694915	0.2988893915715623	0.5422797801086374	0.711755027915201	0.2889655264670395	0.09194176397606768	0.7237827747974505	0.2539211420464832	-0.3170911920848962	0.6858868317526396	0.2578224534234432	-0.34127952665484484	0.5422149643568548	0.32474751318961137	-0.33312780221322824	0.5478181036858216	0.2243390315807499	-0.4025898146716096	0.7487635091560372	0.08901229082954927	0.52731314837186	0.7226283455027425	0.08174085255152795	0.09906813127975561	0.714283284831158	0.08950434807768574	-0.33872505369348077	0.722260289238305	0.0968953546813057	-0.3218915010408429	0.538287547437942	0.04144030062258451	-0.34161408585693587	0.5828003904679521	0.09811809896340211	-0.38579208316539315	0.744654128035649	0.23011923563596043	1.1674084655591699	0.6912851083181386	0.2416158905299138	1.4155559914204074	0.6768691904890332	0.24654048074638943	1.2744161265182368	0.56209405127238	0.38966456025971496	1.0568383128831587	0.7267677520804116	0.4314253166885558	0.7905780764970836	0.6679038666622807	0.2816632546164746	0.6318794965805848	0.5586624172334762	0.18430266093843975	0.5884794529299112	0.5334373451291035	0.16750993425598076	0.5460028694489621	0.5708797706986144	0.169736330839701	0.5263766753163611	0.5695988999859152	0.05929600028255802	1.0792522307008119	0.6978615279203985	0.008247807896917732	0.8163724562280997	0.6397679829425138	0.1282850696654794	0.6498143923602427	0.5333358565734141	0.24143756935051874	0.6161795331124247	0.5050881252385344	0.2347294221724243	0.5708071548126823	0.5275718979536126	0.18548330513563804	0.5150236192189795	0.5440960460795894	
